solid OpenSCAD_Model
  facet normal 1 0 0
    outer loop
      vertex 6 -6 70
      vertex 6 6 25
      vertex 6 6 70
    endloop
  endfacet
  facet normal 1 0 0
    outer loop
      vertex 6 6 25
      vertex 6 -6 70
      vertex 6 -6 25
    endloop
  endfacet
  facet normal 1 0 0
    outer loop
      vertex 6 -6 20
      vertex 6 6 5
      vertex 6 6 20
    endloop
  endfacet
  facet normal 1 0 0
    outer loop
      vertex 6 6 5
      vertex 6 -6 20
      vertex 6 -6 5
    endloop
  endfacet
  facet normal 0 0 1
    outer loop
      vertex 6 6 70
      vertex 2.3499994 0 70
      vertex 6 -6 70
    endloop
  endfacet
  facet normal 0 0 1
    outer loop
      vertex 6 6 70
      vertex 1.6617002 1.6617002 70
      vertex 2.3499994 0 70
    endloop
  endfacet
  facet normal 0 0 1
    outer loop
      vertex 6 6 70
      vertex 0 2.3499994 70
      vertex 1.6617002 1.6617002 70
    endloop
  endfacet
  facet normal 0 0 1
    outer loop
      vertex -6 6 70
      vertex 0 2.3499994 70
      vertex 6 6 70
    endloop
  endfacet
  facet normal 0 0 1
    outer loop
      vertex -1.6617002 1.6617002 70
      vertex -6 6 70
      vertex -2.3499994 0 70
    endloop
  endfacet
  facet normal 0 0 1
    outer loop
      vertex 0 2.3499994 70
      vertex -6 6 70
      vertex -1.6617002 1.6617002 70
    endloop
  endfacet
  facet normal 0 0 1
    outer loop
      vertex 1.6617002 -1.6617002 70
      vertex 6 -6 70
      vertex 2.3499994 0 70
    endloop
  endfacet
  facet normal 0 0 1
    outer loop
      vertex 0 -2.3499994 70
      vertex 6 -6 70
      vertex 1.6617002 -1.6617002 70
    endloop
  endfacet
  facet normal 0 0 1
    outer loop
      vertex -6 -6 70
      vertex 0 -2.3499994 70
      vertex -1.6617002 -1.6617002 70
    endloop
  endfacet
  facet normal 0 0 1
    outer loop
      vertex -6 -6 70
      vertex -2.3499994 0 70
      vertex -6 6 70
    endloop
  endfacet
  facet normal 0 0 1
    outer loop
      vertex 0 -2.3499994 70
      vertex -6 -6 70
      vertex 6 -6 70
    endloop
  endfacet
  facet normal 0 0 1
    outer loop
      vertex -2.3499994 0 70
      vertex -6 -6 70
      vertex -1.6617002 -1.6617002 70
    endloop
  endfacet
  facet normal 0 0 -1
    outer loop
      vertex 21 -6 0
      vertex 4.2 0 0
      vertex 21 6 0
    endloop
  endfacet
  facet normal 0 0 -1
    outer loop
      vertex 21 -6 0
      vertex 3.784069 -1.8223114 0
      vertex 4.2 0 0
    endloop
  endfacet
  facet normal 0 0 -1
    outer loop
      vertex 21 -6 0
      vertex 2.618657 -3.2836914 0
      vertex 3.784069 -1.8223114 0
    endloop
  endfacet
  facet normal 0 0 -1
    outer loop
      vertex 21 -6 0
      vertex 0.9345875 -4.094697 0
      vertex 2.618657 -3.2836914 0
    endloop
  endfacet
  facet normal 0 0 -1
    outer loop
      vertex 21 -6 0
      vertex -0.9345875 -4.094697 0
      vertex 0.9345875 -4.094697 0
    endloop
  endfacet
  facet normal 0 0 -1
    outer loop
      vertex -3.784069 -1.8223114 0
      vertex -21 -6 0
      vertex -4.2 0 0
    endloop
  endfacet
  facet normal 0 0 -1
    outer loop
      vertex -2.618657 -3.2836914 0
      vertex -21 -6 0
      vertex -3.784069 -1.8223114 0
    endloop
  endfacet
  facet normal 0 0 -1
    outer loop
      vertex -0.9345875 -4.094697 0
      vertex -21 -6 0
      vertex -2.618657 -3.2836914 0
    endloop
  endfacet
  facet normal 0 0 -1
    outer loop
      vertex -21 -6 0
      vertex -0.9345875 -4.094697 0
      vertex 21 -6 0
    endloop
  endfacet
  facet normal 0 0 -1
    outer loop
      vertex 3.784069 1.8223114 0
      vertex 21 6 0
      vertex 4.2 0 0
    endloop
  endfacet
  facet normal 0 0 -1
    outer loop
      vertex 2.618657 3.2836914 0
      vertex 21 6 0
      vertex 3.784069 1.8223114 0
    endloop
  endfacet
  facet normal 0 0 -1
    outer loop
      vertex 0.9345875 4.094697 0
      vertex 21 6 0
      vertex 2.618657 3.2836914 0
    endloop
  endfacet
  facet normal 0 0 -1
    outer loop
      vertex -0.9345875 4.094697 0
      vertex 21 6 0
      vertex 0.9345875 4.094697 0
    endloop
  endfacet
  facet normal 0 0 -1
    outer loop
      vertex -21 6 0
      vertex -4.2 0 0
      vertex -21 -6 0
    endloop
  endfacet
  facet normal 0 0 -1
    outer loop
      vertex -4.2 0 0
      vertex -21 6 0
      vertex -3.784069 1.8223114 0
    endloop
  endfacet
  facet normal 0 0 -1
    outer loop
      vertex -0.9345875 4.094697 0
      vertex -21 6 0
      vertex 21 6 0
    endloop
  endfacet
  facet normal 0 0 -1
    outer loop
      vertex -2.618657 3.2836914 0
      vertex -21 6 0
      vertex -0.9345875 4.094697 0
    endloop
  endfacet
  facet normal 0 0 -1
    outer loop
      vertex -3.784069 1.8223114 0
      vertex -21 6 0
      vertex -2.618657 3.2836914 0
    endloop
  endfacet
  facet normal -1 0 0
    outer loop
      vertex -6 -6 25
      vertex -6 6 70
      vertex -6 6 25
    endloop
  endfacet
  facet normal -1 0 0
    outer loop
      vertex -6 6 70
      vertex -6 -6 25
      vertex -6 -6 70
    endloop
  endfacet
  facet normal -1 0 0
    outer loop
      vertex -6 -6 5
      vertex -6 6 20
      vertex -6 6 5
    endloop
  endfacet
  facet normal -1 0 0
    outer loop
      vertex -6 6 20
      vertex -6 -6 5
      vertex -6 -6 20
    endloop
  endfacet
  facet normal 0 1 0
    outer loop
      vertex 21 6 0
      vertex 6 6 5
      vertex 21 6 5
    endloop
  endfacet
  facet normal 0 1 0
    outer loop
      vertex 6 6 5
      vertex 21 6 0
      vertex -6 6 5
    endloop
  endfacet
  facet normal 0 1 0
    outer loop
      vertex -21 6 0
      vertex -6 6 5
      vertex 21 6 0
    endloop
  endfacet
  facet normal 0 1 0
    outer loop
      vertex -6 6 5
      vertex -21 6 0
      vertex -21 6 5
    endloop
  endfacet
  facet normal 0 1 0
    outer loop
      vertex 6 6 5
      vertex -6 6 20
      vertex 6 6 20
    endloop
  endfacet
  facet normal 0 1 0
    outer loop
      vertex -6 6 20
      vertex 6 6 5
      vertex -6 6 5
    endloop
  endfacet
  facet normal 0 1 0
    outer loop
      vertex 6 6 20
      vertex 6 6 25
      vertex 21 6 25
    endloop
  endfacet
  facet normal 0 1 0
    outer loop
      vertex 6 6 25
      vertex 6 6 20
      vertex -6 6 25
    endloop
  endfacet
  facet normal 0 1 0
    outer loop
      vertex 6 6 20
      vertex 21 6 25
      vertex 21 6 20
    endloop
  endfacet
  facet normal 0 1 0
    outer loop
      vertex -6 6 20
      vertex -6 6 25
      vertex 6 6 20
    endloop
  endfacet
  facet normal 0 1 0
    outer loop
      vertex -6 6 25
      vertex -6 6 20
      vertex -21 6 25
    endloop
  endfacet
  facet normal 0 1 0
    outer loop
      vertex -21 6 25
      vertex -6 6 20
      vertex -21 6 20
    endloop
  endfacet
  facet normal 0 1 0
    outer loop
      vertex 6 6 25
      vertex -6 6 70
      vertex 6 6 70
    endloop
  endfacet
  facet normal 0 1 0
    outer loop
      vertex -6 6 70
      vertex 6 6 25
      vertex -6 6 25
    endloop
  endfacet
  facet normal 0 -1 0
    outer loop
      vertex -21 -6 0
      vertex -6 -6 5
      vertex -21 -6 5
    endloop
  endfacet
  facet normal 0 -1 0
    outer loop
      vertex -6 -6 5
      vertex -21 -6 0
      vertex 6 -6 5
    endloop
  endfacet
  facet normal 0 -1 0
    outer loop
      vertex 21 -6 0
      vertex 6 -6 5
      vertex -21 -6 0
    endloop
  endfacet
  facet normal 0 -1 0
    outer loop
      vertex 6 -6 5
      vertex 21 -6 0
      vertex 21 -6 5
    endloop
  endfacet
  facet normal 0 -1 0
    outer loop
      vertex -6 -6 5
      vertex 6 -6 20
      vertex -6 -6 20
    endloop
  endfacet
  facet normal 0 -1 0
    outer loop
      vertex 6 -6 20
      vertex -6 -6 5
      vertex 6 -6 5
    endloop
  endfacet
  facet normal 0 -1 0
    outer loop
      vertex -6 -6 20
      vertex -6 -6 25
      vertex -21 -6 25
    endloop
  endfacet
  facet normal 0 -1 0
    outer loop
      vertex -6 -6 25
      vertex -6 -6 20
      vertex 6 -6 25
    endloop
  endfacet
  facet normal 0 -1 0
    outer loop
      vertex -6 -6 20
      vertex -21 -6 25
      vertex -21 -6 20
    endloop
  endfacet
  facet normal 0 -1 0
    outer loop
      vertex 6 -6 20
      vertex 6 -6 25
      vertex -6 -6 20
    endloop
  endfacet
  facet normal 0 -1 0
    outer loop
      vertex 6 -6 25
      vertex 6 -6 20
      vertex 21 -6 25
    endloop
  endfacet
  facet normal 0 -1 0
    outer loop
      vertex 21 -6 25
      vertex 6 -6 20
      vertex 21 -6 20
    endloop
  endfacet
  facet normal 0 -1 0
    outer loop
      vertex -6 -6 25
      vertex 6 -6 70
      vertex -6 -6 70
    endloop
  endfacet
  facet normal 0 -1 0
    outer loop
      vertex 6 -6 70
      vertex -6 -6 25
      vertex 6 -6 25
    endloop
  endfacet
  facet normal 1 0 0
    outer loop
      vertex 21 -6 5
      vertex 21 6 0
      vertex 21 6 5
    endloop
  endfacet
  facet normal 1 0 0
    outer loop
      vertex 21 6 0
      vertex 21 -6 5
      vertex 21 -6 0
    endloop
  endfacet
  facet normal 0 0 1
    outer loop
      vertex -21 6 5
      vertex -6 -6 5
      vertex -6 6 5
    endloop
  endfacet
  facet normal 0 0 1
    outer loop
      vertex -6 -6 5
      vertex -21 6 5
      vertex -21 -6 5
    endloop
  endfacet
  facet normal 0 0 1
    outer loop
      vertex 6 6 5
      vertex 21 -6 5
      vertex 21 6 5
    endloop
  endfacet
  facet normal 0 0 1
    outer loop
      vertex 21 -6 5
      vertex 6 6 5
      vertex 6 -6 5
    endloop
  endfacet
  facet normal -1 0 0
    outer loop
      vertex -21 -6 0
      vertex -21 6 5
      vertex -21 6 0
    endloop
  endfacet
  facet normal -1 0 0
    outer loop
      vertex -21 6 5
      vertex -21 -6 0
      vertex -21 -6 5
    endloop
  endfacet
  facet normal 1 0 0
    outer loop
      vertex 21 -6 25
      vertex 21 6 20
      vertex 21 6 25
    endloop
  endfacet
  facet normal 1 0 0
    outer loop
      vertex 21 6 20
      vertex 21 -6 25
      vertex 21 -6 20
    endloop
  endfacet
  facet normal 0 0 1
    outer loop
      vertex -21 6 25
      vertex -6 -6 25
      vertex -6 6 25
    endloop
  endfacet
  facet normal 0 0 1
    outer loop
      vertex -6 -6 25
      vertex -21 6 25
      vertex -21 -6 25
    endloop
  endfacet
  facet normal 0 0 1
    outer loop
      vertex 6 6 25
      vertex 21 -6 25
      vertex 21 6 25
    endloop
  endfacet
  facet normal 0 0 1
    outer loop
      vertex 21 -6 25
      vertex 6 6 25
      vertex 6 -6 25
    endloop
  endfacet
  facet normal 0 0 -1
    outer loop
      vertex 6 -6 20
      vertex 21 6 20
      vertex 21 -6 20
    endloop
  endfacet
  facet normal 0 0 -1
    outer loop
      vertex 21 6 20
      vertex 6 -6 20
      vertex 6 6 20
    endloop
  endfacet
  facet normal 0 0 -1
    outer loop
      vertex -21 -6 20
      vertex -6 6 20
      vertex -6 -6 20
    endloop
  endfacet
  facet normal 0 0 -1
    outer loop
      vertex -6 6 20
      vertex -21 -6 20
      vertex -21 6 20
    endloop
  endfacet
  facet normal -1 0 0
    outer loop
      vertex -21 -6 20
      vertex -21 6 25
      vertex -21 6 20
    endloop
  endfacet
  facet normal -1 0 0
    outer loop
      vertex -21 6 25
      vertex -21 -6 20
      vertex -21 -6 25
    endloop
  endfacet
  facet normal 0.38268363 0.92387944 0
    outer loop
      vertex 0 -2.3499994 35
      vertex -1.6617002 -1.6617002 70
      vertex 0 -2.3499994 70
    endloop
  endfacet
  facet normal 0.38268363 0.92387944 0
    outer loop
      vertex -1.6617002 -1.6617002 70
      vertex 0 -2.3499994 35
      vertex -1.6617002 -1.6617002 35
    endloop
  endfacet
  facet normal -0.38268363 -0.92387944 0
    outer loop
      vertex 0 2.3499994 35
      vertex 1.6617002 1.6617002 70
      vertex 0 2.3499994 70
    endloop
  endfacet
  facet normal -0.38268363 -0.92387944 0
    outer loop
      vertex 1.6617002 1.6617002 70
      vertex 0 2.3499994 35
      vertex 1.6617002 1.6617002 35
    endloop
  endfacet
  facet normal 0.92387944 -0.38268363 0
    outer loop
      vertex -2.3499994 0 70
      vertex -1.6617002 1.6617002 35
      vertex -1.6617002 1.6617002 70
    endloop
  endfacet
  facet normal 0.92387944 -0.38268363 0
    outer loop
      vertex -1.6617002 1.6617002 35
      vertex -2.3499994 0 70
      vertex -2.3499994 0 35
    endloop
  endfacet
  facet normal -0.92387944 -0.38268363 0
    outer loop
      vertex 2.3499994 0 35
      vertex 1.6617002 1.6617002 70
      vertex 1.6617002 1.6617002 35
    endloop
  endfacet
  facet normal -0.92387944 -0.38268363 0
    outer loop
      vertex 1.6617002 1.6617002 70
      vertex 2.3499994 0 35
      vertex 2.3499994 0 70
    endloop
  endfacet
  facet normal 0.38268363 -0.92387944 0
    outer loop
      vertex -1.6617002 1.6617002 35
      vertex 0 2.3499994 70
      vertex -1.6617002 1.6617002 70
    endloop
  endfacet
  facet normal 0.38268363 -0.92387944 0
    outer loop
      vertex 0 2.3499994 70
      vertex -1.6617002 1.6617002 35
      vertex 0 2.3499994 35
    endloop
  endfacet
  facet normal 0.92387944 0.38268363 0
    outer loop
      vertex -1.6617002 -1.6617002 70
      vertex -2.3499994 0 35
      vertex -2.3499994 0 70
    endloop
  endfacet
  facet normal 0.92387944 0.38268363 0
    outer loop
      vertex -2.3499994 0 35
      vertex -1.6617002 -1.6617002 70
      vertex -1.6617002 -1.6617002 35
    endloop
  endfacet
  facet normal -0.38268363 0.92387944 0
    outer loop
      vertex 1.6617002 -1.6617002 35
      vertex 0 -2.3499994 70
      vertex 1.6617002 -1.6617002 70
    endloop
  endfacet
  facet normal -0.38268363 0.92387944 0
    outer loop
      vertex 0 -2.3499994 70
      vertex 1.6617002 -1.6617002 35
      vertex 0 -2.3499994 35
    endloop
  endfacet
  facet normal 0 0 -1
    outer loop
      vertex 2.3499994 0 35
      vertex 4.2 0 35
      vertex 3.784069 -1.8223114 35
    endloop
  endfacet
  facet normal 0 0 -1
    outer loop
      vertex 1.6617002 -1.6617002 35
      vertex 3.784069 -1.8223114 35
      vertex 2.618657 -3.2836914 35
    endloop
  endfacet
  facet normal 0 0 -1
    outer loop
      vertex 4.2 0 35
      vertex 2.3499994 0 35
      vertex 3.784069 1.8223114 35
    endloop
  endfacet
  facet normal 0 0 -1
    outer loop
      vertex 1.6617002 1.6617002 35
      vertex 3.784069 1.8223114 35
      vertex 2.3499994 0 35
    endloop
  endfacet
  facet normal 0 0 -1
    outer loop
      vertex 3.784069 -1.8223114 35
      vertex 1.6617002 -1.6617002 35
      vertex 2.3499994 0 35
    endloop
  endfacet
  facet normal 0 0 -1
    outer loop
      vertex 0.9345875 -4.094697 35
      vertex 1.6617002 -1.6617002 35
      vertex 2.618657 -3.2836914 35
    endloop
  endfacet
  facet normal 0 0 -1
    outer loop
      vertex 0.9345875 -4.094697 35
      vertex 0 -2.3499994 35
      vertex 1.6617002 -1.6617002 35
    endloop
  endfacet
  facet normal 0 0 -1
    outer loop
      vertex -0.9345875 -4.094697 35
      vertex 0 -2.3499994 35
      vertex 0.9345875 -4.094697 35
    endloop
  endfacet
  facet normal 0 0 -1
    outer loop
      vertex -0.9345875 -4.094697 35
      vertex -1.6617002 -1.6617002 35
      vertex 0 -2.3499994 35
    endloop
  endfacet
  facet normal 0 0 -1
    outer loop
      vertex -2.618657 -3.2836914 35
      vertex -1.6617002 -1.6617002 35
      vertex -0.9345875 -4.094697 35
    endloop
  endfacet
  facet normal 0 0 -1
    outer loop
      vertex -3.784069 -1.8223114 35
      vertex -1.6617002 -1.6617002 35
      vertex -2.618657 -3.2836914 35
    endloop
  endfacet
  facet normal 0 0 -1
    outer loop
      vertex 3.784069 1.8223114 35
      vertex 1.6617002 1.6617002 35
      vertex 2.618657 3.2836914 35
    endloop
  endfacet
  facet normal 0 0 -1
    outer loop
      vertex 1.6617002 1.6617002 35
      vertex 0.9345875 4.094697 35
      vertex 2.618657 3.2836914 35
    endloop
  endfacet
  facet normal 0 0 -1
    outer loop
      vertex 0 2.3499994 35
      vertex 0.9345875 4.094697 35
      vertex 1.6617002 1.6617002 35
    endloop
  endfacet
  facet normal 0 0 -1
    outer loop
      vertex 0 2.3499994 35
      vertex -0.9345875 4.094697 35
      vertex 0.9345875 4.094697 35
    endloop
  endfacet
  facet normal 0 0 -1
    outer loop
      vertex -1.6617002 1.6617002 35
      vertex -0.9345875 4.094697 35
      vertex 0 2.3499994 35
    endloop
  endfacet
  facet normal 0 0 -1
    outer loop
      vertex -3.784069 1.8223114 35
      vertex -1.6617002 1.6617002 35
      vertex -2.3499994 0 35
    endloop
  endfacet
  facet normal 0 0 -1
    outer loop
      vertex -1.6617002 1.6617002 35
      vertex -2.618657 3.2836914 35
      vertex -0.9345875 4.094697 35
    endloop
  endfacet
  facet normal 0 0 -1
    outer loop
      vertex -1.6617002 -1.6617002 35
      vertex -3.784069 -1.8223114 35
      vertex -2.3499994 0 35
    endloop
  endfacet
  facet normal 0 0 -1
    outer loop
      vertex -4.2 0 35
      vertex -2.3499994 0 35
      vertex -3.784069 -1.8223114 35
    endloop
  endfacet
  facet normal 0 0 -1
    outer loop
      vertex -1.6617002 1.6617002 35
      vertex -3.784069 1.8223114 35
      vertex -2.618657 3.2836914 35
    endloop
  endfacet
  facet normal 0 0 -1
    outer loop
      vertex -2.3499994 0 35
      vertex -4.2 0 35
      vertex -3.784069 1.8223114 35
    endloop
  endfacet
  facet normal -0.92387944 0.38268363 0
    outer loop
      vertex 1.6617002 -1.6617002 35
      vertex 2.3499994 0 70
      vertex 2.3499994 0 35
    endloop
  endfacet
  facet normal -0.92387944 0.38268363 0
    outer loop
      vertex 2.3499994 0 70
      vertex 1.6617002 -1.6617002 35
      vertex 1.6617002 -1.6617002 70
    endloop
  endfacet
  facet normal -0.4338839 0.9009688 0
    outer loop
      vertex 2.618657 -3.2836914 0
      vertex 0.9345875 -4.094697 35
      vertex 2.618657 -3.2836914 35
    endloop
  endfacet
  facet normal -0.4338839 0.9009688 0
    outer loop
      vertex 0.9345875 -4.094697 35
      vertex 2.618657 -3.2836914 0
      vertex 0.9345875 -4.094697 0
    endloop
  endfacet
  facet normal -0.9749279 -0.22252096 0
    outer loop
      vertex 4.2 0 0
      vertex 3.784069 1.8223114 35
      vertex 3.784069 1.8223114 0
    endloop
  endfacet
  facet normal -0.9749279 -0.22252096 0
    outer loop
      vertex 3.784069 1.8223114 35
      vertex 4.2 0 0
      vertex 4.2 0 35
    endloop
  endfacet
  facet normal -0.9749279 0.22252096 0
    outer loop
      vertex 3.784069 -1.8223114 0
      vertex 4.2 0 35
      vertex 4.2 0 0
    endloop
  endfacet
  facet normal -0.9749279 0.22252096 0
    outer loop
      vertex 4.2 0 35
      vertex 3.784069 -1.8223114 0
      vertex 3.784069 -1.8223114 35
    endloop
  endfacet
  facet normal 0 -1 0
    outer loop
      vertex -0.9345875 4.094697 0
      vertex 0.9345875 4.094697 35
      vertex -0.9345875 4.094697 35
    endloop
  endfacet
  facet normal 0 -1 0
    outer loop
      vertex 0.9345875 4.094697 35
      vertex -0.9345875 4.094697 0
      vertex 0.9345875 4.094697 0
    endloop
  endfacet
  facet normal -0.7818314 0.6234899 0
    outer loop
      vertex 2.618657 -3.2836914 0
      vertex 3.784069 -1.8223114 35
      vertex 3.784069 -1.8223114 0
    endloop
  endfacet
  facet normal -0.7818314 0.6234899 0
    outer loop
      vertex 3.784069 -1.8223114 35
      vertex 2.618657 -3.2836914 0
      vertex 2.618657 -3.2836914 35
    endloop
  endfacet
  facet normal 0.9749279 -0.22252096 0
    outer loop
      vertex -4.2 0 35
      vertex -3.784069 1.8223114 0
      vertex -3.784069 1.8223114 35
    endloop
  endfacet
  facet normal 0.9749279 -0.22252096 0
    outer loop
      vertex -3.784069 1.8223114 0
      vertex -4.2 0 35
      vertex -4.2 0 0
    endloop
  endfacet
  facet normal 0.9749279 0.22252096 0
    outer loop
      vertex -3.784069 -1.8223114 35
      vertex -4.2 0 0
      vertex -4.2 0 35
    endloop
  endfacet
  facet normal 0.9749279 0.22252096 0
    outer loop
      vertex -4.2 0 0
      vertex -3.784069 -1.8223114 35
      vertex -3.784069 -1.8223114 0
    endloop
  endfacet
  facet normal 0 1 0
    outer loop
      vertex 0.9345875 -4.094697 0
      vertex -0.9345875 -4.094697 35
      vertex 0.9345875 -4.094697 35
    endloop
  endfacet
  facet normal 0 1 0
    outer loop
      vertex -0.9345875 -4.094697 35
      vertex 0.9345875 -4.094697 0
      vertex -0.9345875 -4.094697 0
    endloop
  endfacet
  facet normal 0.4338839 -0.9009688 0
    outer loop
      vertex -2.618657 3.2836914 0
      vertex -0.9345875 4.094697 35
      vertex -2.618657 3.2836914 35
    endloop
  endfacet
  facet normal 0.4338839 -0.9009688 0
    outer loop
      vertex -0.9345875 4.094697 35
      vertex -2.618657 3.2836914 0
      vertex -0.9345875 4.094697 0
    endloop
  endfacet
  facet normal -0.4338839 -0.9009688 0
    outer loop
      vertex 0.9345875 4.094697 0
      vertex 2.618657 3.2836914 35
      vertex 0.9345875 4.094697 35
    endloop
  endfacet
  facet normal -0.4338839 -0.9009688 0
    outer loop
      vertex 2.618657 3.2836914 35
      vertex 0.9345875 4.094697 0
      vertex 2.618657 3.2836914 0
    endloop
  endfacet
  facet normal 0.7818314 -0.6234899 0
    outer loop
      vertex -3.784069 1.8223114 35
      vertex -2.618657 3.2836914 0
      vertex -2.618657 3.2836914 35
    endloop
  endfacet
  facet normal 0.7818314 -0.6234899 0
    outer loop
      vertex -2.618657 3.2836914 0
      vertex -3.784069 1.8223114 35
      vertex -3.784069 1.8223114 0
    endloop
  endfacet
  facet normal 0.4338839 0.9009688 0
    outer loop
      vertex -0.9345875 -4.094697 0
      vertex -2.618657 -3.2836914 35
      vertex -0.9345875 -4.094697 35
    endloop
  endfacet
  facet normal 0.4338839 0.9009688 0
    outer loop
      vertex -2.618657 -3.2836914 35
      vertex -0.9345875 -4.094697 0
      vertex -2.618657 -3.2836914 0
    endloop
  endfacet
  facet normal -0.7818314 -0.6234899 0
    outer loop
      vertex 3.784069 1.8223114 0
      vertex 2.618657 3.2836914 35
      vertex 2.618657 3.2836914 0
    endloop
  endfacet
  facet normal -0.7818314 -0.6234899 0
    outer loop
      vertex 2.618657 3.2836914 35
      vertex 3.784069 1.8223114 0
      vertex 3.784069 1.8223114 35
    endloop
  endfacet
  facet normal 0.7818314 0.6234899 0
    outer loop
      vertex -2.618657 -3.2836914 35
      vertex -3.784069 -1.8223114 0
      vertex -3.784069 -1.8223114 35
    endloop
  endfacet
  facet normal 0.7818314 0.6234899 0
    outer loop
      vertex -3.784069 -1.8223114 0
      vertex -2.618657 -3.2836914 35
      vertex -2.618657 -3.2836914 0
    endloop
  endfacet
endsolid OpenSCAD_Model
